<svg aria-hidden="true" style="position: absolute; width: 0; height: 0; overflow: hidden;" version="1.1" xmlns="http://www.w3.org/2000/svg" xmlns:xlink="http://www.w3.org/1999/xlink">
<defs>
<symbol id="chevron-down" viewBox="0 0 54 32">
<path d="M51.837 3.138l-0.788-0.788c-0.563-0.563-1.35-0.563-1.912 0l-21.938 21.938-22.050-21.938c-0.563-0.563-1.35-0.563-1.913 0l-0.788 0.788c-0.563 0.563-0.563 1.35 0 1.912l23.738 23.738c0.563 0.563 1.35 0.563 1.913 0l23.737-23.738c0.563-0.563 0.563-1.35 0-1.912z"></path>
</symbol>
<symbol id="heart" viewBox="0 0 37 32">
<path d="M32.327 3.625c-3.702-3.096-9.154-2.625-12.586 0.942l-1.279 1.346-1.346-1.346c-2.759-2.827-8.279-4.577-12.586-0.942-4.24 3.635-4.442 10.096-0.673 14l13.058 13.462c0.404 0.404 0.942 0.606 1.481 0.606 0.606 0 1.144-0.202 1.548-0.606l13.058-13.462c3.769-3.904 3.567-10.365-0.673-14zM31.452 16.144l-12.99 13.462-13.058-13.462c-2.558-2.692-3.096-7.74 0.538-10.837 3.702-3.163 8.010-0.875 9.625 0.74l2.894 2.962 2.827-2.962c1.548-1.615 5.923-3.904 9.625-0.74 3.635 3.096 3.096 8.144 0.538 10.837z"></path>
</symbol>
<symbol id="hero-1" viewBox="0 0 33 32">
<path d="M0.8 0h32v32h-32v-32z"></path>
<path d="M0.8 0h32v32h-32v-32z"></path>
</symbol>
<symbol id="hero-2" viewBox="0 0 33 32">
<path d="M0.8 0h32v32h-32v-32z"></path>
<path d="M0.8 0h32v32h-32v-32z"></path>
</symbol>
<symbol id="hero-3" viewBox="0 0 33 32">
<path d="M0.8 0h31.467v32h-31.467v-32z"></path>
<path d="M0.8 0h31.467v32h-31.467v-32z"></path>
</symbol>
<symbol id="instagram" viewBox="0 0 32 32">
<path d="M16 0c-4.347 0-4.889 0.020-6.596 0.096-1.704 0.080-2.864 0.348-3.884 0.744-1.052 0.408-1.945 0.956-2.835 1.845s-1.439 1.781-1.845 2.835c-0.396 1.020-0.665 2.18-0.744 3.884-0.080 1.707-0.096 2.249-0.096 6.596s0.020 4.889 0.096 6.596c0.080 1.703 0.348 2.864 0.744 3.884 0.408 1.051 0.956 1.945 1.845 2.835 0.889 0.888 1.781 1.439 2.835 1.845 1.021 0.395 2.181 0.665 3.884 0.744 1.707 0.080 2.249 0.096 6.596 0.096s4.889-0.020 6.596-0.096c1.703-0.080 2.864-0.349 3.884-0.744 1.051-0.408 1.945-0.957 2.835-1.845 0.888-0.889 1.439-1.78 1.845-2.835 0.395-1.020 0.665-2.181 0.744-3.884 0.080-1.707 0.096-2.249 0.096-6.596s-0.020-4.889-0.096-6.596c-0.080-1.703-0.349-2.865-0.744-3.884-0.408-1.052-0.957-1.945-1.845-2.835-0.889-0.889-1.78-1.439-2.835-1.845-1.020-0.396-2.181-0.665-3.884-0.744-1.707-0.080-2.249-0.096-6.596-0.096zM16 2.88c4.271 0 4.78 0.021 6.467 0.095 1.56 0.073 2.407 0.332 2.969 0.553 0.749 0.289 1.28 0.636 1.843 1.195 0.559 0.56 0.905 1.092 1.195 1.841 0.219 0.563 0.48 1.409 0.551 2.969 0.076 1.688 0.093 2.195 0.093 6.467s-0.020 4.78-0.099 6.467c-0.081 1.56-0.341 2.407-0.561 2.969-0.299 0.749-0.639 1.28-1.199 1.843-0.559 0.559-1.099 0.905-1.84 1.195-0.56 0.219-1.42 0.48-2.98 0.551-1.699 0.076-2.199 0.093-6.479 0.093-4.281 0-4.781-0.020-6.479-0.099-1.561-0.081-2.421-0.341-2.981-0.561-0.759-0.299-1.28-0.639-1.839-1.199-0.561-0.559-0.92-1.099-1.2-1.84-0.22-0.56-0.479-1.42-0.56-2.98-0.060-1.68-0.081-2.199-0.081-6.459 0-4.261 0.021-4.781 0.081-6.481 0.081-1.56 0.34-2.419 0.56-2.979 0.28-0.76 0.639-1.28 1.2-1.841 0.559-0.559 1.080-0.919 1.839-1.197 0.56-0.221 1.401-0.481 2.961-0.561 1.7-0.060 2.2-0.080 6.479-0.080l0.060 0.040zM16 7.784c-4.54 0-8.216 3.68-8.216 8.216 0 4.54 3.68 8.216 8.216 8.216 4.54 0 8.216-3.68 8.216-8.216 0-4.54-3.68-8.216-8.216-8.216zM16 21.333c-2.947 0-5.333-2.387-5.333-5.333s2.387-5.333 5.333-5.333c2.947 0 5.333 2.387 5.333 5.333s-2.387 5.333-5.333 5.333zM26.461 7.46c0 1.060-0.861 1.92-1.92 1.92-1.060 0-1.92-0.861-1.92-1.92s0.861-1.919 1.92-1.919c1.057-0.001 1.92 0.86 1.92 1.919z"></path>
</symbol>
<symbol id="phone" viewBox="0 0 32 32">
<path d="M24.591 32c-6.519-0.009-12.769-2.607-17.379-7.226s-7.203-10.881-7.212-17.414c0-1.952 0.774-3.824 2.151-5.204s3.246-2.156 5.194-2.156c0.413-0.003 0.824 0.034 1.23 0.112 0.392 0.058 0.777 0.155 1.15 0.288 0.262 0.092 0.496 0.251 0.678 0.462s0.306 0.465 0.36 0.738l2.188 9.6c0.059 0.261 0.052 0.532-0.021 0.789s-0.208 0.492-0.395 0.683c-0.208 0.224-0.224 0.24-2.188 1.264 1.573 3.457 4.332 6.234 7.776 7.824 1.038-1.984 1.054-2 1.277-2.208 0.191-0.187 0.425-0.323 0.682-0.395s0.527-0.080 0.787-0.021l9.581 2.192c0.264 0.061 0.508 0.189 0.709 0.371s0.353 0.412 0.441 0.669c0.135 0.38 0.236 0.771 0.303 1.168 0.064 0.402 0.096 0.809 0.096 1.216-0.029 1.944-0.825 3.797-2.213 5.155s-3.256 2.11-5.196 2.093z"></path>
</symbol>
<symbol id="logo" viewBox="0 0 34 32">
<path d="M0 0h33.524v32h-33.524v-32z"></path>
<path d="M0 0h33.524v32h-33.524v-32z"></path>
</symbol>
<symbol id="icon-right" viewBox="0 0 24 32">
<path d="M13.841 10.786c0.144-0.001 0.286 0.033 0.416 0.099s0.244 0.161 0.335 0.28l4.649 6.135c0.142 0.183 0.219 0.412 0.219 0.649s-0.077 0.466-0.219 0.649l-4.813 6.135c-0.163 0.209-0.398 0.34-0.653 0.365s-0.508-0.059-0.705-0.232c-0.197-0.174-0.32-0.423-0.344-0.693s0.055-0.54 0.219-0.748l4.303-5.48-4.158-5.48c-0.118-0.15-0.192-0.333-0.215-0.527s0.007-0.391 0.086-0.567c0.079-0.176 0.204-0.325 0.36-0.428s0.337-0.157 0.521-0.155z"></path>
</symbol>
<symbol id="icon-left" viewBox="0 0 24 32">
<path d="M10.58 21.214c-0.144 0.001-0.286-0.033-0.416-0.099s-0.244-0.161-0.335-0.28l-4.649-6.135c-0.142-0.183-0.219-0.412-0.219-0.649s0.077-0.466 0.219-0.649l4.813-6.135c0.163-0.209 0.398-0.34 0.653-0.365s0.508 0.059 0.705 0.232c0.197 0.174 0.32 0.423 0.344 0.693s-0.055 0.54-0.219 0.748l-4.303 5.48 4.158 5.48c0.118 0.15 0.193 0.333 0.216 0.527s-0.007 0.391-0.086 0.567c-0.079 0.176-0.204 0.325-0.36 0.428s-0.337 0.157-0.521 0.155z"></path>
</symbol>
<symbol id="check" viewBox="0 0 32 32">
<path d="M13.147 24c-0.183-0.001-0.364-0.039-0.531-0.112s-0.318-0.18-0.442-0.315l-6.48-6.893c-0.242-0.258-0.372-0.602-0.361-0.956s0.163-0.689 0.421-0.931c0.258-0.242 0.602-0.372 0.956-0.361s0.689 0.163 0.931 0.421l5.493 5.853 11.213-12.267c0.114-0.142 0.255-0.259 0.416-0.344s0.337-0.136 0.518-0.151c0.181-0.014 0.363 0.008 0.535 0.067s0.33 0.152 0.465 0.274c0.135 0.122 0.243 0.27 0.318 0.436s0.116 0.344 0.12 0.526c0.004 0.182-0.030 0.362-0.099 0.53s-0.171 0.321-0.301 0.448l-12.187 13.333c-0.123 0.136-0.273 0.246-0.441 0.322s-0.349 0.116-0.533 0.118h-0.013z"></path>
</symbol>
<symbol id="close" viewBox="0 0 32 32">
<path stroke-linejoin="miter" stroke-linecap="butt" stroke-miterlimit="4" stroke-width="2.4615" d="M1.231 16c0-8.157 6.612-14.769 14.769-14.769v0c8.157 0 14.769 6.612 14.769 14.769v0c0 8.157-6.612 14.769-14.769 14.769v0c-8.157 0-14.769-6.612-14.769-14.769v0z"></path>
<path stroke-linejoin="round" stroke-linecap="round" stroke-miterlimit="4" stroke-width="2.4615" d="M6.154 6.154l19.692 19.692"></path>
<path stroke-linejoin="round" stroke-linecap="round" stroke-miterlimit="4" stroke-width="2.4615" d="M6.154 25.846l19.692-19.692"></path>
</symbol>
<symbol id="facebook" viewBox="0 0 32 32">
<path d="M22.667 4.667c0-0.177-0.070-0.346-0.195-0.471s-0.295-0.195-0.471-0.195h-3.333c-1.678-0.084-3.322 0.501-4.571 1.625s-2.003 2.697-2.096 4.375v3.6h-3.333c-0.177 0-0.346 0.070-0.471 0.195s-0.195 0.295-0.195 0.471v3.467c0 0.177 0.070 0.346 0.195 0.471s0.295 0.195 0.471 0.195h3.333v8.933c0 0.177 0.070 0.346 0.195 0.471s0.295 0.195 0.471 0.195h4c0.177 0 0.346-0.070 0.471-0.195s0.195-0.295 0.195-0.471v-8.933h3.493c0.148 0.002 0.293-0.045 0.411-0.135s0.204-0.216 0.242-0.359l0.96-3.467c0.026-0.098 0.030-0.202 0.010-0.302s-0.062-0.194-0.124-0.275c-0.062-0.081-0.142-0.147-0.233-0.193s-0.192-0.070-0.294-0.070h-4.467v-3.6c0.033-0.33 0.188-0.636 0.435-0.858s0.567-0.344 0.899-0.342h3.333c0.177 0 0.346-0.070 0.471-0.195s0.195-0.295 0.195-0.471v-3.467z"></path>
</symbol>
<symbol id="person" viewBox="0 0 32 32">
<path d="M16 15.467c1.055 0 2.086-0.313 2.963-0.899s1.561-1.419 1.964-2.394 0.509-2.047 0.304-3.081c-0.206-1.035-0.714-1.985-1.46-2.731s-1.696-1.254-2.731-1.46-2.107-0.1-3.082 0.303c-0.975 0.404-1.807 1.087-2.393 1.964s-0.899 1.908-0.899 2.963c0 1.414 0.562 2.771 1.562 3.771s2.357 1.562 3.771 1.562z"></path>
<path d="M24 28.8c0.354 0 0.693-0.14 0.943-0.39s0.39-0.589 0.39-0.943c0-2.475-0.983-4.849-2.734-6.6s-4.124-2.734-6.6-2.734-4.849 0.983-6.6 2.734c-1.75 1.75-2.734 4.124-2.734 6.6 0 0.354 0.14 0.693 0.391 0.943s0.589 0.39 0.943 0.39h16z"></path>
</symbol>


<symbol id="icon-burger-svg" viewBox="0 0 32 32">
<path d="M26.667 7.303l-1.97-1.97-7.808 7.808-7.808-7.808-1.97 1.97 7.808 7.808-7.808 7.808 1.97 1.97 7.808-7.808 7.808 7.808 1.97-1.97-7.808-7.808 7.808-7.808z"></path>
</symbol>
<symbol id="icon-people-svg" viewBox="0 0 32 32">
<path d="M16 16c2.947 0 5.333-2.387 5.333-5.333s-2.387-5.333-5.333-5.333c-2.947 0-5.333 2.387-5.333 5.333s2.387 5.333 5.333 5.333zM16 18.667c-3.56 0-10.667 1.787-10.667 5.333v1.333c0 0.733 0.6 1.333 1.333 1.333h18.667c0.733 0 1.333-0.6 1.333-1.333v-1.333c0-3.547-7.107-5.333-10.667-5.333z"></path>
</symbol>
<symbol id="icon-phone-svg" viewBox="0 0 32 32">
<path d="M24.882 19.774l-3.268-0.373c-0.785-0.090-1.557 0.18-2.11 0.733l-2.367 2.367c-3.641-1.853-6.626-4.825-8.478-8.478l2.38-2.38c0.553-0.553 0.823-1.325 0.733-2.11l-0.373-3.242c-0.154-1.299-1.248-2.277-2.56-2.277h-2.226c-1.454 0-2.663 1.209-2.573 2.663 0.682 10.987 9.469 19.761 20.443 20.443 1.454 0.090 2.663-1.119 2.663-2.573v-2.226c0.013-1.299-0.965-2.393-2.264-2.547z"></path>
</symbol>
<symbol id="icon-email-svg" viewBox="0 0 32 32">
<path d="M26.667 5.333h-21.333c-1.467 0-2.653 1.2-2.653 2.667l-0.013 16c0 1.467 1.2 2.667 2.667 2.667h21.333c1.467 0 2.667-1.2 2.667-2.667v-16c0-1.467-1.2-2.667-2.667-2.667zM26.133 11l-9.427 5.893c-0.427 0.267-0.987 0.267-1.413 0l-9.427-5.893c-0.333-0.213-0.533-0.573-0.533-0.96 0-0.893 0.973-1.427 1.733-0.96l8.933 5.587 8.933-5.587c0.76-0.467 1.733 0.067 1.733 0.96 0 0.387-0.2 0.747-0.533 0.96z"></path>
</symbol>
<symbol id="icon-lotos" viewBox="0 0 54 32">
<path d="M21.96 0.711c-0.838 1.443-1.537 3.192-2.006 5.041-0.102 0.406-0.19 0.745-0.199 0.749-0.008 0.008-0.165-0.097-0.351-0.229-1.177-0.864-2.506-1.651-3.822-2.269-0.491-0.233-1.998-0.796-2.032-0.766-0.038 0.038-0.267 1.367-0.326 1.884-0.14 1.253-0.123 3.344 0.042 4.686 0.025 0.241 0.047 0.436 0.038 0.436-0.004 0-0.178-0.047-0.381-0.11-1.329-0.385-2.709-0.66-4.042-0.8-0.749-0.076-2.531-0.089-2.531-0.017 0 0.025 0.047 0.334 0.106 0.69 0.271 1.604 0.834 3.323 1.676 5.122 0.186 0.398 0.351 0.745 0.36 0.77 0.017 0.034-0.123 0.059-0.436 0.076-1.448 0.093-3.098 0.368-4.444 0.745-0.576 0.161-1.858 0.61-1.93 0.677-0.021 0.017 0.119 0.305 0.309 0.639 0.847 1.49 1.901 2.836 3.335 4.262l0.652 0.643-0.224 0.093c-1.795 0.745-3.839 1.985-5.211 3.162l-0.538 0.461 0.55 0.474c2.324 1.998 5.79 3.666 9.113 4.381 1.765 0.381 3.949 0.567 5.232 0.449 4.186-0.385 8.233-2.057 11.577-4.779 0.186-0.152 0.368-0.305 0.402-0.343 0.072-0.072 0.144-0.114-0.665 0.423-4.123 2.768-9.058 4.021-13.333 3.382-2.442-0.364-4.927-1.27-7.166-2.616-0.665-0.398-1.985-1.308-1.989-1.367 0-0.042 1.003-0.758 1.553-1.101 0.61-0.385 1.418-0.834 1.973-1.101l0.372-0.178 0.178 0.131c0.356 0.267 1.376 0.931 1.829 1.202 2.408 1.418 4.385 2.083 7.217 2.43 0.77 0.093 3.001 0.127 3.839 0.064 1.376-0.11 2.739-0.339 3.992-0.665 0.58-0.152 2.133-0.652 2.104-0.677-0.008-0.008-0.271 0.051-0.588 0.131-1.905 0.478-3.771 0.686-5.769 0.643-2.874-0.064-5.295-0.622-7.577-1.748-1.012-0.499-2.167-1.236-3.069-1.951l-0.36-0.284 0.508-0.165c1.050-0.343 2.311-0.622 3.437-0.766l0.516-0.068 0.377 0.271c1.52 1.096 3.475 2.074 5.46 2.73 1.541 0.512 3.247 0.868 4.876 1.020 0.665 0.059 2.358 0.097 1.884 0.038-0.186-0.021-0.635-0.076-0.995-0.127-3.010-0.394-6.061-1.49-8.461-3.031-0.571-0.364-1.325-0.919-1.278-0.935 0.093-0.030 1.545 0.131 2.256 0.25 0.808 0.135 1.795 0.368 2.578 0.605 0.436 0.131 0.542 0.186 0.952 0.474 1.308 0.914 2.929 1.79 4.356 2.358 0.555 0.22 0.974 0.372 0.948 0.351-0.013-0.013-0.381-0.203-0.825-0.423-0.44-0.22-1.029-0.533-1.308-0.703-0.618-0.364-1.803-1.156-1.774-1.181 0.008-0.013 0.461 0.203 1.003 0.474 0.961 0.483 1.981 1.084 2.654 1.562 0.186 0.131 0.339 0.22 0.339 0.199 0-0.025 0.017-0.034 0.038-0.021 0.017 0.013-0.102-0.288-0.271-0.665-0.466-1.046-0.872-2.188-1.16-3.264-0.051-0.182-0.085-0.339-0.076-0.347 0.025-0.025 0.427 0.847 0.681 1.477 0.275 0.69 0.487 1.299 0.728 2.125l0.186 0.635-0.034-0.444c-0.076-1.101-0.013-4.381 0.080-4.055 0.114 0.419 0.152 2.954 0.059 4.182l-0.021 0.275 0.14-0.487c0.322-1.096 0.77-2.328 1.151-3.153 0.085-0.186 0.186-0.402 0.22-0.483 0.131-0.301 0.089-0.072-0.11 0.635-0.317 1.109-0.724 2.218-1.151 3.124-0.114 0.241-0.195 0.457-0.174 0.478 0.017 0.017 0.152-0.051 0.301-0.161 0.893-0.652 2.764-1.714 3.623-2.066l0.169-0.068-0.106 0.085c-0.186 0.148-1.401 0.952-1.799 1.185-0.207 0.127-0.753 0.415-1.206 0.648-0.906 0.461-0.906 0.474 0 0.114 1.663-0.66 3.395-1.608 4.732-2.595 0.25-0.182 0.851-0.381 1.934-0.643 1.117-0.271 2.773-0.508 3.344-0.478l0.25 0.013-0.588 0.406c-2.811 1.943-6.231 3.225-9.587 3.594-0.245 0.030-0.55 0.064-0.677 0.085-0.22 0.030-0.216 0.034 0.148 0.038 0.563 0.004 1.727-0.072 2.502-0.165 3.505-0.427 6.908-1.719 9.634-3.644 0.474-0.339 0.44-0.334 1.312-0.207 1.041 0.148 2.053 0.385 3.124 0.728l0.44 0.144-0.313 0.25c-1.617 1.287-3.704 2.421-5.384 2.921-1.846 0.546-3.395 0.779-5.452 0.813-2.171 0.038-3.746-0.135-5.68-0.622-0.271-0.072-0.508-0.127-0.529-0.123-0.017 0 0.148 0.068 0.368 0.144 4.656 1.676 10.21 1.659 14.337-0.034 1.371-0.563 2.95-1.456 4.148-2.341 0.169-0.127 0.326-0.229 0.351-0.229 0.097 0 1.405 0.698 2.011 1.071 0.825 0.508 1.854 1.244 1.82 1.304-0.068 0.106-1.49 1.067-2.138 1.443-2.933 1.697-6.277 2.662-9.227 2.671-3.649 0.008-7.767-1.304-11.103-3.53-0.343-0.229-0.614-0.398-0.601-0.377s0.245 0.22 0.521 0.436c3.175 2.548 6.912 4.11 11.035 4.61 0.677 0.080 2.582 0.068 3.386-0.025 3.407-0.394 6.709-1.596 9.63-3.517 0.779-0.508 1.067-0.728 1.74-1.304 0.389-0.33 0.491-0.44 0.449-0.474-0.389-0.351-1.024-0.872-1.346-1.109-1.24-0.923-2.887-1.846-4.415-2.485l-0.161-0.068 0.648-0.648c0.969-0.965 1.816-1.964 2.574-3.043 0.394-0.559 1.117-1.816 1.071-1.862-0.017-0.013-0.313-0.135-0.665-0.267-1.604-0.601-3.674-1.016-5.702-1.147-0.254-0.013-0.457-0.030-0.457-0.038 0-0.004 0.127-0.271 0.279-0.597 0.69-1.448 1.283-3.094 1.579-4.381 0.123-0.533 0.309-1.655 0.279-1.685-0.059-0.055-1.917-0.017-2.54 0.055-1.316 0.148-2.561 0.389-3.716 0.724-0.364 0.106-0.669 0.19-0.677 0.19-0.004 0 0.013-0.203 0.042-0.457 0.157-1.397 0.174-3.302 0.034-4.593-0.051-0.504-0.292-1.926-0.33-1.96-0.021-0.025-1.397 0.478-1.79 0.652-1.304 0.576-2.857 1.49-4.013 2.353-0.207 0.157-0.381 0.275-0.389 0.267-0.008-0.004-0.089-0.305-0.182-0.665-0.495-1.926-1.257-3.822-2.116-5.257l-0.347-0.584-0.58 0.478c-1.287 1.058-2.633 2.569-3.725 4.186-0.199 0.301-0.372 0.542-0.389 0.542s-0.195-0.25-0.398-0.55c-1.016-1.511-2.421-3.090-3.666-4.123-0.313-0.262-0.588-0.487-0.614-0.499-0.021-0.013-0.229 0.292-0.453 0.677zM31.445 4.241c0.495 1.041 0.847 1.956 1.185 3.077l0.174 0.567-0.542 0.554c-0.72 0.736-1.393 1.515-1.905 2.197-0.233 0.305-0.449 0.601-0.478 0.652-0.034 0.055-0.072 0.097-0.085 0.097s-0.047-0.11-0.076-0.245c-0.085-0.389-0.61-1.93-0.863-2.531-0.131-0.305-0.343-0.766-0.47-1.033-0.131-0.262-0.237-0.491-0.237-0.512 0-0.055 0.724-1.012 1.143-1.503 0.334-0.394 1.807-1.922 1.854-1.922 0.008 0 0.144 0.271 0.301 0.601zM23.767 4.368c0.72 0.728 1.325 1.431 1.917 2.226l0.356 0.478-0.296 0.643c-0.495 1.079-0.914 2.197-1.219 3.264-0.11 0.402-0.119 0.415-0.178 0.326-0.169-0.25-0.842-1.13-1.156-1.507-0.195-0.233-0.686-0.762-1.092-1.172l-0.736-0.749 0.076-0.267c0.148-0.533 0.491-1.532 0.724-2.099 0.305-0.758 0.821-1.829 0.88-1.829 0.025 0 0.351 0.309 0.724 0.686zM15.869 6.624c1.016 0.449 2.011 0.995 2.95 1.608l0.597 0.389-0.034 0.292c-0.123 1.092-0.157 2.629-0.076 3.674 0.021 0.322 0.034 0.593 0.025 0.605-0.013 0.008-0.199-0.106-0.419-0.254-0.838-0.58-2.256-1.367-3.276-1.816l-0.343-0.152-0.025-0.224c-0.059-0.516-0.080-1.879-0.034-2.578 0.059-0.961 0.14-1.735 0.178-1.735 0.013 0 0.22 0.085 0.457 0.19zM38.789 6.527c0.11 0.521 0.19 3.132 0.123 4.013-0.030 0.415-0.042 0.444-0.14 0.491-0.059 0.030-0.478 0.233-0.931 0.457-0.91 0.44-1.744 0.919-2.514 1.435-0.428 0.284-0.499 0.322-0.478 0.237 0.013-0.055 0.047-0.512 0.072-1.012 0.042-0.923 0.008-2.201-0.085-3.005-0.068-0.597-0.097-0.533 0.415-0.868 0.919-0.597 1.905-1.139 2.823-1.553 0.351-0.157 0.648-0.284 0.665-0.288 0.017 0 0.042 0.042 0.051 0.093zM27.577 9.714c0.453 0.919 0.775 1.719 1.058 2.612l0.195 0.618-0.152 0.301c-0.487 0.969-1.092 2.671-1.38 3.873-0.207 0.855-0.216 0.88-0.237 0.766-0.305-1.486-0.914-3.289-1.541-4.563-0.207-0.419-0.207-0.411 0.114-1.367 0.33-0.999 0.8-2.078 1.278-2.933 0.14-0.25 0.152-0.262 0.207-0.19 0.034 0.047 0.237 0.44 0.457 0.885zM33.283 10.336c0.161 1.198 0.22 2.455 0.165 3.386l-0.038 0.622-0.576 0.593c-0.91 0.944-1.702 1.934-2.442 3.052-0.284 0.427-0.347 0.499-0.326 0.381 0.017-0.080 0.059-0.444 0.102-0.804 0.089-0.804 0.106-3.23 0.021-3.953l-0.051-0.457 0.157-0.22c0.508-0.703 1.058-1.333 1.901-2.176 0.521-0.516 0.965-0.94 0.982-0.94 0.021 0 0.072 0.233 0.106 0.516zM21.452 10.281c0.868 0.804 1.537 1.537 2.197 2.404l0.377 0.499-0.051 0.55c-0.11 1.147-0.055 3.462 0.11 4.483 0.021 0.14 0.034 0.258 0.030 0.267-0.008 0.004-0.165-0.224-0.347-0.508-0.72-1.096-1.592-2.18-2.535-3.141l-0.499-0.504-0.034-0.745c-0.030-0.677 0.004-2.023 0.059-2.463 0.114-0.919 0.169-1.261 0.203-1.261 0.021 0 0.241 0.19 0.491 0.419zM10.413 11.729c0.83 0.080 1.786 0.245 2.722 0.47 0.449 0.106 0.55 0.144 0.58 0.22 0.021 0.047 0.102 0.347 0.186 0.66 0.254 0.978 0.614 2.002 1.058 3.022 0.131 0.301 0.233 0.555 0.224 0.563s-0.195-0.034-0.415-0.093c-1.024-0.275-2.4-0.491-3.776-0.597l-0.373-0.025-0.106-0.241c-0.237-0.521-0.61-1.494-0.796-2.061-0.19-0.584-0.533-1.845-0.533-1.96 0-0.059 0.258-0.051 1.228 0.042zM44.995 11.666c0 0.013-0.068 0.288-0.148 0.61-0.271 1.071-0.703 2.307-1.232 3.501-0.093 0.203-0.025 0.186-0.957 0.267-1.020 0.089-2.235 0.296-3.217 0.546-0.254 0.068-0.457 0.114-0.457 0.11 0-0.008 0.093-0.224 0.207-0.483 0.466-1.041 0.923-2.358 1.172-3.378 0.063-0.254 0.135-0.478 0.161-0.508 0.047-0.051 1.117-0.301 1.761-0.411 0.411-0.072 1.651-0.229 1.968-0.25 0.394-0.025 0.741-0.030 0.741-0.004zM38.476 13.528c-0.233 1.050-0.495 1.909-0.893 2.904-0.292 0.741-0.36 0.88-0.432 0.88-0.102 0-1.579 0.758-2.167 1.109-0.72 0.432-1.232 0.775-1.824 1.219-0.245 0.186-0.453 0.339-0.461 0.339s0.161-0.368 0.381-0.817c0.593-1.223 1.037-2.4 1.355-3.598 0.106-0.402 0.169-0.563 0.241-0.622 0.152-0.123 1.067-0.686 1.536-0.944 0.665-0.368 2.337-1.113 2.383-1.067 0.008 0.004-0.047 0.275-0.119 0.597zM16.178 13.189c1.029 0.436 2.112 1.003 3.026 1.592 0.356 0.229 0.398 0.271 0.436 0.428 0.385 1.494 0.855 2.768 1.515 4.106 0.178 0.368 0.322 0.665 0.317 0.665-0.008 0-0.229-0.161-0.487-0.356-1.050-0.779-2.121-1.422-3.344-2.015-0.576-0.279-0.753-0.381-0.787-0.466-0.025-0.059-0.131-0.317-0.241-0.571-0.254-0.605-0.614-1.68-0.783-2.349-0.186-0.736-0.292-1.27-0.25-1.27 0.017 0 0.284 0.106 0.597 0.237zM25.566 16c0.478 1.126 0.83 2.21 1.101 3.374 0.119 0.525 0.123 0.559 0.072 0.944-0.068 0.563-0.068 3.475 0.004 4.085 0.030 0.254 0.064 0.542 0.076 0.635 0.008 0.093-0.047-0.080-0.123-0.381-0.394-1.507-0.948-3.043-1.511-4.169-0.182-0.36-0.254-0.787-0.343-2.053-0.072-1.007-0.008-3.048 0.114-3.577 0.021-0.093 0.047-0.063 0.195 0.233 0.097 0.186 0.284 0.597 0.415 0.91zM29.223 15.035c0.161 1.558 0.148 3.094-0.038 4.626-0.059 0.478-0.080 0.55-0.334 1.105-0.55 1.206-1.012 2.493-1.338 3.75-0.093 0.356-0.161 0.563-0.148 0.457 0.008-0.106 0.042-0.402 0.072-0.656 0.072-0.639 0.072-3.128 0-3.936l-0.059-0.635 0.199-0.783c0.233-0.919 0.525-1.82 0.842-2.595 0.284-0.694 0.703-1.596 0.745-1.596 0.017 0 0.047 0.119 0.059 0.262zM32.99 16.766c-0.195 0.753-0.588 1.913-0.885 2.62-0.334 0.8-0.91 1.943-0.999 1.994-0.11 0.055-1.156 1.189-1.638 1.765-0.495 0.597-0.914 1.151-1.295 1.723-0.347 0.516-0.364 0.533-0.203 0.212 0.618-1.236 1.164-2.679 1.553-4.097 0.199-0.72 0.216-0.749 0.842-1.659 0.643-0.931 1.35-1.778 2.176-2.595 0.313-0.309 0.576-0.559 0.584-0.55 0.008 0.013-0.051 0.275-0.135 0.588zM21.913 17.050c0.859 0.927 1.515 1.752 2.214 2.798 0.343 0.512 0.356 0.542 0.533 1.185 0.377 1.371 0.885 2.709 1.465 3.877 0.245 0.491 0.233 0.483-0.157-0.085-0.732-1.075-1.46-1.96-2.4-2.921l-0.665-0.681-0.385-0.779c-0.402-0.825-0.779-1.744-1.033-2.523-0.161-0.499-0.449-1.566-0.449-1.659 0-0.085 0.398 0.275 0.876 0.787zM12.593 17.757c0.681 0.034 1.68 0.161 2.455 0.317 1.092 0.22 0.982 0.165 1.355 0.698 0.775 1.109 1.761 2.235 2.802 3.208 0.195 0.178 0.343 0.326 0.33 0.326s-0.245-0.068-0.521-0.152c-1.41-0.427-3.556-0.821-4.491-0.821h-0.212l-0.487-0.542c-0.584-0.643-1.020-1.185-1.439-1.786-0.326-0.461-0.83-1.244-0.83-1.291 0-0.013 0.119-0.013 0.267-0.004 0.144 0.013 0.491 0.034 0.77 0.047zM42.582 17.723c-0.004 0.064-0.542 0.876-0.935 1.422-0.406 0.563-1.054 1.35-1.528 1.862l-0.267 0.284-0.677 0.064c-1.253 0.119-2.616 0.381-3.852 0.741-0.301 0.089-0.584 0.178-0.622 0.19-0.042 0.017 0.322-0.368 0.804-0.855 0.914-0.919 1.613-1.735 2.243-2.637l0.373-0.529 0.483-0.114c0.643-0.157 1.617-0.317 2.349-0.389 0.652-0.064 1.63-0.085 1.63-0.038zM9.994 18.337c0.538 0.766 1.27 1.668 1.939 2.392 0.305 0.33 0.554 0.61 0.554 0.618s-0.178 0.030-0.389 0.047c-0.927 0.068-2.455 0.351-3.56 0.665l-0.593 0.169-0.368-0.394c-0.838-0.897-1.562-1.803-2.193-2.751-0.119-0.178-0.224-0.347-0.229-0.372-0.017-0.059 0.144-0.114 1.088-0.36 0.969-0.25 2.662-0.546 3.247-0.567 0.097-0.004 0.161 0.068 0.504 0.555zM45.841 17.909c0.758 0.114 1.799 0.339 2.544 0.546 0.33 0.097 0.618 0.182 0.639 0.195 0.017 0.013-0.102 0.224-0.271 0.474-0.597 0.893-1.384 1.867-2.197 2.73l-0.356 0.372-0.55-0.152c-1.071-0.292-2.557-0.567-3.67-0.677-0.161-0.017-0.288-0.042-0.288-0.059 0-0.013 0.135-0.161 0.301-0.322 0.698-0.686 1.79-2.023 2.392-2.938l0.207-0.309 0.339 0.025c0.186 0.017 0.597 0.068 0.91 0.114zM18.696 19.285c1.003 0.47 2.362 1.295 3.344 2.032 0.415 0.313 0.508 0.406 0.758 0.77 0.681 0.986 1.49 1.951 2.455 2.921 0.402 0.402 0.669 0.686 0.597 0.631-1.156-0.88-2.713-1.816-3.928-2.362l-0.601-0.271-0.69-0.673c-1.033-0.999-1.723-1.807-2.43-2.849-0.212-0.305-0.381-0.567-0.381-0.58 0-0.025 0.22 0.072 0.876 0.381zM36.186 19.141c-0.72 1.067-1.494 2.002-2.514 3.022l-0.804 0.808-0.838 0.406c-0.466 0.224-1.079 0.546-1.371 0.711-0.495 0.284-1.752 1.105-2.235 1.46-0.14 0.102-0.068 0.021 0.212-0.245 0.863-0.821 1.964-2.116 2.717-3.192 0.33-0.474 0.402-0.55 0.813-0.855 0.88-0.656 1.477-1.037 2.413-1.553 0.478-0.262 1.672-0.825 1.752-0.825 0.017 0-0.047 0.119-0.144 0.262zM25.024 24.021c0.787 0.855 1.947 2.353 1.879 2.425-0.055 0.051-1.198-1.189-1.862-2.023-0.36-0.444-0.978-1.287-1.058-1.439-0.059-0.106 0.546 0.495 1.041 1.037zM29.879 23.416c-0.427 0.61-0.821 1.109-1.376 1.748-0.504 0.584-1.287 1.38-1.287 1.312 0-0.064 0.758-1.088 1.223-1.655 0.47-0.576 1.697-1.896 1.727-1.862 0.013 0.008-0.119 0.216-0.288 0.457z"></path>
</symbol>
</defs>
</svg>

